<svg width="549" height="420" viewBox="0 0 549 420" fill="none" xmlns="http://www.w3.org/2000/svg">
<g clip-path="url(#clip0_132:2)">
<path opacity="0.1" d="M199.845 417.098C310.217 417.098 399.69 413.964 399.69 410.097C399.69 406.231 310.217 403.096 199.845 403.096C89.4737 403.096 0 406.231 0 410.097C0 413.964 89.4737 417.098 199.845 417.098Z" fill="#00A82D"/>
<path opacity="0.1" d="M147.307 12.7106C160.039 1.55832 180.023 -0.714571 198.214 0.173802C255.351 2.96416 306.928 30.0789 351.542 60.7488C367.693 71.8517 383.594 83.8174 394.078 99.1071C415.42 130.232 409.089 173.35 379.413 198.991C369.317 207.715 357.077 214.403 344.511 220.332C322.17 230.873 298.063 239.335 272.705 241.744C254.622 243.461 236.317 242.065 218.34 239.668C168.113 232.973 118.812 218.167 77.491 192.836C59.3676 181.726 42.2853 167.913 34.8152 149.94C27.345 131.967 32.1258 109.191 50.6316 98.5524C58.2855 94.1525 67.4366 92.1652 76.3959 90.2993C89.5835 87.5527 102.983 84.8452 114.883 79.2614C127.175 73.4941 141.73 62.3412 139.297 49.5758C136.685 35.879 134.59 23.8498 147.307 12.7106Z" fill="#00A82D"/>
<path opacity="0.1" d="M495.552 420C525.07 420 549 417.919 549 415.352C549 412.785 525.07 410.703 495.552 410.703C466.033 410.703 442.104 412.785 442.104 415.352C442.104 417.919 466.033 420 495.552 420Z" fill="#00A82D"/>
<path d="M278.759 158.179C277.888 156.524 273.288 146.234 273.288 146.234L265.58 126.601C265.58 126.601 260.11 118.322 260.11 116.784C260.11 115.247 250.164 109.097 250.164 109.097C250.164 109.097 242.082 106.731 241.461 106.495C240.839 106.258 231.266 103.145 231.266 103.145C231.266 103.145 227.496 98.2724 226.959 99.545L226.959 99.5482C226.939 99.5161 226.919 99.4882 226.9 99.4551C226.129 98.0405 225.642 96.4941 225.462 94.8993C225.442 94.7576 225.424 94.608 225.406 94.4603C227.889 92.806 229.924 90.5816 231.335 87.9798C232.746 85.3779 233.491 82.4771 233.504 79.5287C233.502 78.7524 233.449 77.9771 233.345 77.2077C233.413 77.1657 233.485 77.1287 233.558 77.097C233.713 77.0309 233.674 76.9772 233.56 76.9212C233.599 76.9011 233.638 76.8798 233.677 76.8634C233.883 76.7755 233.746 76.7089 233.546 76.6298L233.558 76.6239C233.839 76.5041 233.484 76.4248 233.199 76.2981C233.184 76.2163 233.17 76.1341 233.153 76.0527C233.216 75.8969 233.255 75.7325 233.267 75.5653C233.293 75.5777 233.316 75.591 233.343 75.6025C233.412 75.2977 233.41 74.9814 233.337 74.6774C233.319 74.7391 233.298 74.7998 233.273 74.8591C233.29 74.5834 233.233 74.3081 233.105 74.0618C232.978 73.8156 232.786 73.6074 232.549 73.459C232.535 73.4467 232.519 73.4336 232.504 73.4212L233.032 68.1152C240.806 67.7541 242.17 54.7524 240.397 54.03C238.624 53.3077 240.397 51.7427 240.397 48.6126C240.397 45.4826 234.532 41.9914 234.532 41.9914C234.532 41.9914 232.077 43.1953 228.258 37.176C224.439 31.1566 210.39 30.1936 209.435 31.7586C208.48 33.3236 202.206 35.3702 194.022 37.6575C185.839 39.9448 187.339 49.4554 188.703 51.5019C189.827 53.1939 190.484 55.1435 190.612 57.1601C190.612 58.364 193.204 63.4201 193.204 63.4201C192.387 65.1722 194.467 74.7704 195.083 77.4983C195.073 77.5822 195.063 77.6657 195.054 77.7499C195.049 77.7582 195.042 77.7652 195.037 77.7735C195.008 77.8176 194.981 77.8634 194.958 77.9107C194.825 78.1934 194.782 78.5084 194.832 78.8156C194.787 79.1514 194.835 79.4929 194.97 79.8043C195.017 82.3744 195.622 84.9049 196.744 87.2264C197.867 89.548 199.481 91.607 201.479 93.2655C201.488 93.4296 201.498 93.5949 201.507 93.7639C201.621 95.9921 201.686 98.6272 201.567 101.149C201.561 101.278 201.551 101.404 201.544 101.532C201.093 101.622 200.669 101.815 200.308 102.095C199.946 102.375 199.657 102.735 199.463 103.145C198.692 104.602 194.217 106.85 194.217 106.85C194.217 106.85 186.384 107.204 185.638 108.624C184.892 110.043 173.578 114.774 173.578 114.774C173.578 114.774 167.611 118.204 168.481 122.107C168.936 124.146 167.659 127.314 166.336 129.876C163.57 128.845 160.689 128.139 157.754 127.773L164.092 133.733C163.959 133.937 163.881 134.052 163.881 134.052L160.275 146.589C160.275 146.589 159.032 150.965 157.789 152.029C156.546 153.094 158.908 162.792 158.908 162.792C158.908 162.792 157.54 169.652 156.421 171.426C155.302 173.2 158.162 177.576 158.162 177.576L163.881 190.349L179.049 194.134C179.049 194.134 180.059 194.344 181.693 194.688C181.641 194.993 181.589 195.298 181.535 195.601C180.804 199.669 179.844 203.411 178.676 204.424C175.816 206.907 175.941 218.025 175.941 218.025L176.065 233.755C176.065 233.755 177.059 253.152 176.562 253.861C176.248 254.309 176.878 255.04 178.54 255.696C178.493 255.988 178.446 256.284 178.402 256.586C177.935 259.803 177.726 263.474 178.8 265.097C179.267 265.975 179.522 266.946 179.546 267.936C179.546 269.473 181.908 272.667 181.908 272.667C181.908 272.667 180.043 285.795 183.151 290.289C186.26 294.783 188.871 302.944 187.379 304.836C187.379 304.836 184.768 310.395 186.011 312.879C187.254 315.363 186.011 316.782 184.395 317.373C182.779 317.965 182.918 322.814 182.918 322.814L185.887 345.877C185.887 345.877 187.503 350.608 186.135 352.263C184.768 353.919 184.768 362.198 186.881 365.037C188.995 367.875 183.897 373.079 183.897 373.079C183.897 373.079 180.789 377.455 185.762 378.875C185.762 378.875 186.757 379.111 184.892 381.004C183.027 382.896 182.654 385.261 183.897 386.089C184.155 386.241 184.425 386.373 184.704 386.483C184.658 386.763 184.608 387.054 184.549 387.362C184.071 389.831 183.171 393.048 181.535 394.605C178.364 397.798 175.628 401.383 173.394 405.268C171.689 408.447 170.943 411.423 172.832 412.819C177.308 416.13 183.027 417.195 186.384 415.894C189.741 414.593 194.465 410.571 194.465 410.571L195.584 405.959C195.584 405.959 194.838 403.12 198.568 402.056C202.298 400.991 205.779 397.207 205.779 397.207V391.076C206.682 390.568 207.554 390.009 208.39 389.401C208.39 389.401 210.13 383.369 208.39 381.358C206.649 379.348 206.028 378.638 208.265 377.337C210.503 376.036 210.807 373.198 209.166 370.714C207.519 368.23 204.909 364.564 207.147 359.36C209.384 354.156 210.205 338.189 210.205 338.189C210.205 338.189 209.161 327.308 210.205 324.824C211.249 322.341 209.011 317.373 209.011 317.373C209.011 317.373 209.757 311.223 211.125 308.385C212.493 305.546 213.612 290.526 213.612 290.526C213.612 290.526 216.098 284.139 216.098 279.999C216.098 275.86 212.244 265.925 217.963 263.323C217.963 263.323 220.449 265.452 219.455 273.968C219.455 273.968 222.314 283.902 222.314 286.977C222.314 290.053 224.428 301.17 224.428 301.17C224.428 301.17 224.677 304.718 225.547 306.019C226.417 307.32 225.547 310.868 225.547 310.868C225.547 310.868 228.779 313.825 227.909 315.718C227.039 317.61 228.058 321.877 228.058 321.877L227.287 348.361C227.287 348.361 225.05 359.715 230.271 366.574C230.271 366.574 228.406 376.628 227.287 377.337C226.168 378.047 231.39 384.197 231.39 384.197C231.39 384.197 229.943 388.181 232.882 388.376V394.96C233.903 396.732 235.302 398.266 236.985 399.454C239.72 401.346 238.601 407.851 238.601 407.851C238.601 407.851 242.082 416.13 251.282 414.356C260.483 412.582 261.726 411.754 261.229 408.797C261.05 407.719 260.652 405.793 260.08 403.608C259.09 399.809 257.573 395.225 255.758 392.963C252.899 389.401 250.536 381.95 250.536 381.95C250.536 381.95 249.418 379.466 250.536 378.638C251.655 377.81 251.158 376.273 251.158 376.273C251.158 376.273 252.247 373.198 251.268 371.305C250.288 369.413 253.147 365.51 253.147 365.51L252.277 347.296L253.147 320.803C253.147 320.803 249.293 316.427 250.909 313.825C252.526 311.223 249.045 307.557 249.045 307.557C249.045 307.557 248.672 307.439 249.666 304.482C250.261 302.739 250.173 300.841 249.418 299.16C249.418 299.16 247.304 291.827 251.034 286.268C251.034 286.268 252.65 278.935 253.147 275.15C253.49 272.52 255.639 262.694 256.917 256.946C256.989 256.621 257.058 256.31 257.125 256.013C258.966 256.112 260.358 256.227 260.358 256.227C260.358 256.227 257.499 236.712 260.358 232.691C263.218 228.67 258.12 197.919 258.12 197.919C258.12 197.919 256.902 192.545 256.151 187.062C256.108 186.749 256.069 186.437 256.03 186.125C258.338 185.943 260.655 185.893 262.969 185.973C268.937 186.328 274.78 184.081 274.904 181.834C275.029 179.587 278.261 170.716 278.759 168.706C279.256 166.695 279.629 159.835 278.759 158.179Z" fill="url(#paint0_linear_132:2)"/>
<path d="M206.214 386.339V397.291C206.214 397.291 202.86 401.059 199.266 402.119C195.672 403.178 196.391 406.005 196.391 406.005L195.312 410.597C195.312 410.597 190.76 414.601 187.526 415.896C184.291 417.191 178.78 416.132 174.468 412.834C172.647 411.445 173.366 408.482 175.009 405.317C177.151 401.462 179.787 397.894 182.854 394.7C184.43 393.15 185.297 389.947 185.757 387.489C186.098 385.647 186.208 384.22 186.208 384.22L206.214 386.339Z" fill="#4C495A"/>
<path opacity="0.1" d="M206.214 394.512V397.291C206.214 397.291 202.86 401.059 199.266 402.119C195.672 403.179 196.391 406.005 196.391 406.005L195.312 410.597C195.312 410.597 190.76 414.601 187.526 415.896C184.291 417.192 178.78 416.132 174.468 412.835C172.647 411.445 173.366 408.482 175.009 405.317C174.933 408.642 175.934 412.378 180.817 412.246C186.087 412.081 191.166 410.266 195.312 407.065C195.312 407.065 195.193 399.293 200.703 397.526C202.717 396.873 204.587 395.85 206.214 394.512Z" fill="black"/>
<path d="M250.06 414.365C241.195 416.132 237.841 407.889 237.841 407.889C237.841 407.889 238.919 401.412 236.283 399.528C234.653 398.333 233.305 396.807 232.33 395.053V384.22L243.112 376.683L248.948 381.761L249.341 382.1C249.341 382.1 251.617 389.519 254.372 393.066C256.122 395.317 257.583 399.881 258.537 403.664C259.088 405.84 259.471 407.757 259.644 408.831C260.123 411.775 258.925 412.599 250.06 414.365Z" fill="#4C495A"/>
<path opacity="0.1" d="M250.06 414.365C241.195 416.132 237.841 407.889 237.841 407.889C237.841 407.889 238.919 401.412 236.283 399.528C234.653 398.333 233.305 396.807 232.33 395.053V390.856C234.041 392.632 237.266 396.071 237.96 397.526C238.919 399.528 239.038 406.829 243.471 408.124C247.903 409.42 256.529 410.597 257.248 407.3C257.546 406.047 257.979 404.828 258.537 403.664C259.088 405.84 259.471 407.757 259.644 408.831C260.123 411.775 258.925 412.599 250.06 414.365Z" fill="black"/>
<path opacity="0.1" d="M186.208 384.22L206.214 386.339V392.128C203.957 393.442 200.723 394.837 198.906 393.405C196.223 391.294 188.245 388.614 185.758 387.489C186.098 385.647 186.208 384.22 186.208 384.22Z" fill="black"/>
<path opacity="0.1" d="M249.341 383.042C246.586 382.1 241.674 386.222 235.205 388.812C234.306 389.229 233.324 389.444 232.33 389.443V384.22L243.112 376.683L248.948 381.761C249.038 382.199 249.17 382.628 249.341 383.042Z" fill="black"/>
<path d="M256.409 253.393C256.409 253.393 256.03 255.126 255.489 257.641C254.257 263.364 252.187 273.148 251.857 275.766C251.377 279.535 249.82 286.835 249.82 286.835C246.226 292.37 248.263 299.671 248.263 299.671C248.991 301.351 249.076 303.233 248.502 304.97C247.544 307.914 247.903 308.032 247.903 308.032C247.903 308.032 251.258 311.682 249.7 314.273C248.143 316.863 251.857 321.22 251.857 321.22L251.018 347.598L251.857 365.732C251.857 365.732 249.101 369.618 250.045 371.502C250.989 373.386 249.94 376.448 249.94 376.448C249.94 376.448 250.419 377.979 249.341 378.803C248.263 379.627 249.341 382.1 249.341 382.1C246.586 381.158 241.674 385.28 235.205 387.87C228.736 390.461 230.892 384.338 230.892 384.338C230.892 384.338 225.861 378.214 226.939 377.508C228.017 376.801 229.814 366.792 229.814 366.792C224.782 359.962 226.939 348.657 226.939 348.657L227.682 322.29C227.682 322.29 226.699 318.041 227.538 316.157C228.376 314.273 225.262 311.329 225.262 311.329C225.262 311.329 226.1 307.796 225.262 306.501C224.423 305.205 224.184 301.673 224.184 301.673C224.184 301.673 222.147 290.604 222.147 287.542C222.147 284.48 219.392 274.589 219.392 274.589C220.35 266.11 217.954 263.991 217.954 263.991C212.443 266.581 216.157 276.473 216.157 280.594C216.157 284.716 213.761 291.075 213.761 291.075C213.761 291.075 212.683 306.03 211.365 308.856C210.047 311.682 209.329 317.805 209.329 317.805C209.329 317.805 211.485 322.751 210.479 325.224C209.472 327.697 210.479 338.53 210.479 338.53C210.479 338.53 209.688 354.428 207.532 359.609C205.375 364.79 207.891 368.441 209.477 370.913C211.059 373.386 210.766 376.212 208.61 377.508C206.454 378.803 207.053 379.51 208.73 381.511C210.407 383.513 208.73 389.519 208.73 389.519C208.73 389.519 201.901 394.818 198.906 392.463C195.911 390.108 186.328 387.046 185.13 386.222C183.932 385.397 184.291 383.042 186.088 381.158C187.885 379.274 186.927 379.039 186.927 379.039C182.135 377.625 185.13 373.269 185.13 373.269C185.13 373.269 190.041 368.087 188.005 365.261C185.968 362.435 185.968 354.192 187.286 352.543C188.604 350.895 187.046 346.185 187.046 346.185L184.186 323.222C184.186 323.222 184.052 318.394 185.609 317.805C187.166 317.217 188.364 315.804 187.166 313.331C185.968 310.858 188.484 305.323 188.484 305.323C189.922 303.439 187.406 295.314 184.411 290.839C181.416 286.364 183.213 273.294 183.213 273.294C183.213 273.294 180.937 270.114 180.937 268.583C180.914 267.6 180.669 266.635 180.218 265.757C179.183 264.142 179.384 260.486 179.835 257.283C180.271 254.184 180.937 251.509 180.937 251.509L256.409 253.393Z" fill="#5F5D7E"/>
<path d="M232.929 119.975L209.329 125.392C209.329 125.392 197.708 115.736 200.584 110.555C201.571 108.774 202.007 105.736 202.155 102.524C202.27 100.013 202.208 97.3894 202.098 95.1709C201.93 91.9632 201.662 89.594 201.662 89.594C201.662 89.594 225.861 76.1698 225.022 89.594C224.852 91.8295 224.905 94.076 225.18 96.3014C225.351 97.8848 225.821 99.423 226.565 100.837C227.859 103.103 229.455 103.136 229.455 103.136L232.929 119.975Z" fill="#FDC2CC"/>
<path opacity="0.1" d="M225.18 96.3011C221.77 98.706 217.63 99.9035 213.438 99.6982C209.246 99.4929 205.248 97.8969 202.098 95.1707C201.93 91.963 201.662 89.5937 201.662 89.5937C201.662 89.5937 225.861 76.1696 225.022 89.5937C224.852 91.8293 224.905 94.0758 225.18 96.3011Z" fill="black"/>
<path d="M214.36 99.2498C224.615 99.2498 232.929 91.078 232.929 80.9976C232.929 70.9172 224.615 62.7454 214.36 62.7454C204.105 62.7454 195.792 70.9172 195.792 80.9976C195.792 91.078 204.105 99.2498 214.36 99.2498Z" fill="#FDC2CC"/>
<path opacity="0.1" d="M232.929 119.975L209.329 125.392C209.329 125.392 197.708 115.736 200.584 110.554C201.571 108.774 202.007 105.736 202.155 102.523C202.676 105.317 204.202 107.833 206.454 109.612C211.845 113.145 211.006 117.502 211.006 117.502L220.709 117.149C220.11 113.263 223.704 111.143 224.902 110.672C226.1 110.201 225.501 108.082 225.501 108.082L226.565 100.837C227.859 103.103 229.455 103.136 229.455 103.136L232.929 119.975Z" fill="black"/>
<path opacity="0.1" d="M256.409 253.393C256.409 253.393 256.03 255.126 255.489 257.641C252.882 257.505 249.437 257.406 247.903 257.75C245.268 258.339 234.726 258.574 234.726 258.574L208.61 259.483V258.692C205.606 258.716 202.606 258.912 199.625 259.281C195.193 259.869 188.245 259.045 183.812 258.339C182.448 258.146 181.112 257.792 179.835 257.283C180.271 254.184 180.937 251.509 180.937 251.509L256.409 253.393Z" fill="black"/>
<path d="M254.372 178.618C253.994 180.817 254.272 184.463 254.751 188.062C255.475 193.521 256.649 198.872 256.649 198.872C256.649 198.872 261.56 229.488 258.805 233.492C256.05 237.496 258.805 256.925 258.805 256.925C258.805 256.925 250.539 256.219 247.903 256.808C245.268 257.397 234.726 257.632 234.726 257.632L208.61 258.541V257.75C205.606 257.774 202.606 257.97 199.625 258.339C195.193 258.927 188.245 258.103 183.812 257.396C179.38 256.69 177.583 255.277 178.062 254.57C178.541 253.864 177.583 234.552 177.583 234.552L177.463 218.89C177.463 218.89 177.343 207.821 180.098 205.348C181.224 204.34 182.149 200.615 182.854 196.564C183.865 190.699 184.411 184.152 184.411 184.152L166.202 136.225L165.843 135.283C165.843 135.283 171.114 127.276 170.275 123.39C169.436 119.504 175.187 116.089 175.187 116.089C175.187 116.089 186.088 111.379 186.807 109.966C187.526 108.553 195.073 108.199 195.073 108.199C195.073 108.199 199.386 105.962 200.128 104.511C200.309 104.106 200.586 103.749 200.935 103.47C201.284 103.19 201.696 102.997 202.136 102.905C202.644 105.733 204.178 108.283 206.454 110.084C211.845 113.616 211.006 117.973 211.006 117.973L220.71 117.62C220.111 113.734 223.704 111.614 224.902 111.143C226.1 110.672 225.501 108.553 225.501 108.553L226.623 100.927C227.14 99.6598 230.772 104.511 230.772 104.511C230.772 104.511 239.997 107.611 240.596 107.846C241.195 108.082 248.982 110.437 248.982 110.437C248.982 110.437 258.565 116.56 258.565 118.091C258.565 119.622 263.836 127.865 263.836 127.865C263.836 127.865 263.774 128.195 263.659 128.797C262.442 135.288 255.249 173.554 254.372 178.618Z" fill="#00A82D"/>
<path d="M216.037 159.541C216.037 159.541 195.313 154.124 193.276 152.829C191.239 151.534 179.26 159.07 193.875 169.315C193.875 169.315 211.747 172.965 216.528 169.315C221.309 165.664 216.037 159.541 216.037 159.541Z" fill="#FDC2CC"/>
<path opacity="0.1" d="M260.841 127.276L263.357 127.394L270.785 146.941C270.785 146.941 275.217 157.186 276.056 158.835C276.894 160.483 276.535 167.313 276.056 169.315C275.576 171.317 272.462 180.148 272.342 182.386C272.222 184.623 266.592 186.861 260.841 186.507C255.091 186.154 241.674 187.92 241.674 187.92C241.674 187.92 227.345 186.448 218.553 190.864C218.553 190.864 212.923 179.442 213.522 158.128C213.522 158.128 223.465 157.539 225.981 158.481C228.496 159.423 240.716 162.132 242.273 160.719C243.83 159.306 250.898 163.309 250.898 163.309C251.258 162.533 251.444 161.69 251.444 160.836C251.444 159.983 251.258 159.14 250.898 158.364C249.7 155.537 247.664 146.706 250.299 143.879C252.935 141.053 260.841 127.276 260.841 127.276Z" fill="black"/>
<path opacity="0.1" d="M254.751 188.062C248.804 188.457 242.153 189.333 242.153 189.333C242.153 189.333 227.825 187.859 219.032 192.277C219.032 192.277 213.402 180.855 214.001 159.541C214.001 159.541 223.944 158.952 226.46 159.894C228.975 160.836 241.195 163.545 242.752 162.132C244.309 160.719 251.377 164.722 251.377 164.722C251.737 163.946 251.923 163.103 251.923 162.249C251.923 161.396 251.737 160.553 251.377 159.777C250.179 156.95 248.143 148.119 250.778 145.293C253.414 142.466 261.321 128.689 261.321 128.689L263.659 128.797C262.442 135.288 255.249 173.554 254.372 178.618C253.994 180.817 254.272 184.463 254.751 188.062Z" fill="black"/>
<path d="M261.321 127.747L263.836 127.865L271.264 147.412C271.264 147.412 275.696 157.657 276.535 159.306C277.373 160.954 277.014 167.784 276.535 169.786C276.056 171.788 272.941 180.619 272.821 182.857C272.701 185.094 267.071 187.331 261.321 186.978C255.57 186.625 242.153 188.391 242.153 188.391C242.153 188.391 227.824 186.919 219.032 191.335C219.032 191.335 213.402 179.913 214.001 158.599C214.001 158.599 223.944 158.01 226.46 158.952C228.975 159.894 241.195 162.603 242.752 161.19C244.309 159.777 251.377 163.78 251.377 163.78C251.737 163.004 251.923 162.161 251.923 161.307C251.923 160.454 251.737 159.611 251.377 158.834C250.179 156.008 248.143 147.177 250.778 144.35C253.414 141.524 261.321 127.747 261.321 127.747Z" fill="#00A82D"/>
<path d="M236.011 171L239 172.82L255.658 146.375L252.669 144.556L236.011 171Z" fill="#DFE6F5"/>
<path d="M264.199 142.794C267.143 138.12 266.826 132.686 263.491 130.657C260.157 128.627 255.067 130.77 252.123 135.444C249.179 140.117 249.496 145.551 252.831 147.581C256.165 149.611 261.255 147.467 264.199 142.794Z" fill="#DFE6F5"/>
<path opacity="0.1" d="M262.495 141.757C264.608 138.402 264.381 134.502 261.987 133.045C259.594 131.588 255.94 133.126 253.827 136.481C251.714 139.836 251.941 143.736 254.335 145.193C256.728 146.65 260.382 145.112 262.495 141.757Z" fill="black"/>
<path d="M227.497 184.516L230.486 186.335L240.851 169.881L237.862 168.062L227.497 184.516Z" fill="#53526B"/>
<path d="M209.928 185.683L217.235 183.681C217.235 183.681 253.294 184.623 241.195 170.021C241.195 170.021 234.845 164.016 221.548 168.844C208.251 173.672 204.537 174.261 204.537 174.261L209.928 185.683Z" fill="#FDC2CC"/>
<path opacity="0.1" d="M204.537 124.096C205.331 124.096 205.974 123.464 205.974 122.683C205.974 121.903 205.331 121.27 204.537 121.27C203.743 121.27 203.099 121.903 203.099 122.683C203.099 123.464 203.743 124.096 204.537 124.096Z" fill="black"/>
<path opacity="0.1" d="M229.215 123.272C230.009 123.272 230.653 122.64 230.653 121.859C230.653 121.079 230.009 120.446 229.215 120.446C228.421 120.446 227.777 121.079 227.777 121.859C227.777 122.64 228.421 123.272 229.215 123.272Z" fill="black"/>
<path d="M204.537 123.625C205.331 123.625 205.974 122.993 205.974 122.212C205.974 121.432 205.331 120.799 204.537 120.799C203.743 120.799 203.099 121.432 203.099 122.212C203.099 122.993 203.743 123.625 204.537 123.625Z" fill="white"/>
<path opacity="0.1" d="M206.573 143.644C207.367 143.644 208.011 143.011 208.011 142.231C208.011 141.451 207.367 140.818 206.573 140.818C205.779 140.818 205.136 141.451 205.136 142.231C205.136 143.011 205.779 143.644 206.573 143.644Z" fill="black"/>
<path opacity="0.1" d="M229.934 142.231C230.728 142.231 231.371 141.598 231.371 140.818C231.371 140.037 230.728 139.405 229.934 139.405C229.14 139.405 228.496 140.037 228.496 140.818C228.496 141.598 229.14 142.231 229.934 142.231Z" fill="black"/>
<path d="M206.573 143.173C207.367 143.173 208.011 142.54 208.011 141.76C208.011 140.979 207.367 140.347 206.573 140.347C205.779 140.347 205.136 140.979 205.136 141.76C205.136 142.54 205.779 143.173 206.573 143.173Z" fill="white"/>
<path opacity="0.1" d="M229.335 210.42C230.129 210.42 230.772 209.787 230.772 209.007C230.772 208.226 230.129 207.594 229.335 207.594C228.541 207.594 227.897 208.226 227.897 209.007C227.897 209.787 228.541 210.42 229.335 210.42Z" fill="black"/>
<path opacity="0.1" d="M210.415 210.42C211.209 210.42 211.853 209.787 211.853 209.007C211.853 208.226 211.209 207.594 210.415 207.594C209.621 207.594 208.978 208.226 208.978 209.007C208.978 209.787 209.621 210.42 210.415 210.42Z" fill="black"/>
<path d="M229.335 209.949C230.129 209.949 230.772 209.316 230.772 208.536C230.772 207.755 230.129 207.123 229.335 207.123C228.541 207.123 227.897 207.755 227.897 208.536C227.897 209.316 228.541 209.949 229.335 209.949Z" fill="white"/>
<path opacity="0.1" d="M211.853 234.081C212.647 234.081 213.29 233.448 213.29 232.668C213.29 231.887 212.647 231.255 211.853 231.255C211.059 231.255 210.415 231.887 210.415 232.668C210.415 233.448 211.059 234.081 211.853 234.081Z" fill="black"/>
<path opacity="0.1" d="M229.934 232.668C230.728 232.668 231.371 232.035 231.371 231.255C231.371 230.474 230.728 229.841 229.934 229.841C229.14 229.841 228.496 230.474 228.496 231.255C228.496 232.035 229.14 232.668 229.934 232.668Z" fill="black"/>
<path d="M211.853 233.61C212.647 233.61 213.29 232.977 213.29 232.197C213.29 231.416 212.647 230.784 211.853 230.784C211.059 230.784 210.415 231.416 210.415 232.197C210.415 232.977 211.059 233.61 211.853 233.61Z" fill="white"/>
<path d="M210.415 209.949C211.209 209.949 211.853 209.316 211.853 208.536C211.853 207.755 211.209 207.123 210.415 207.123C209.621 207.123 208.978 207.755 208.978 208.536C208.978 209.316 209.621 209.949 210.415 209.949Z" fill="white"/>
<path d="M229.934 232.197C230.728 232.197 231.371 231.564 231.371 230.784C231.371 230.003 230.728 229.37 229.934 229.37C229.14 229.37 228.496 230.003 228.496 230.784C228.496 231.564 229.14 232.197 229.934 232.197Z" fill="white"/>
<path d="M229.215 122.801C230.009 122.801 230.653 122.168 230.653 121.388C230.653 120.608 230.009 119.975 229.215 119.975C228.421 119.975 227.777 120.608 227.777 121.388C227.777 122.168 228.421 122.801 229.215 122.801Z" fill="white"/>
<path d="M229.934 141.76C230.728 141.76 231.371 141.127 231.371 140.347C231.371 139.566 230.728 138.934 229.934 138.934C229.14 138.934 228.496 139.566 228.496 140.347C228.496 141.127 229.14 141.76 229.934 141.76Z" fill="white"/>
<path opacity="0.1" d="M232.09 189.922C232.09 189.922 232.33 222.187 233.049 227.957C233.049 227.957 233.31 191.443 232.09 189.922Z" fill="black"/>
<path opacity="0.1" d="M238.2 204.877C237.706 204.877 248.023 242.677 248.502 245.385C248.981 248.094 241.075 204.877 238.2 204.877Z" fill="black"/>
<path opacity="0.1" d="M246.346 198.754C246.346 199.107 252.096 219.244 254.971 220.303C257.847 221.363 246.346 198.754 246.346 198.754Z" fill="black"/>
<path opacity="0.1" d="M268.988 159.541C268.988 159.541 256.768 160.076 256.409 161.811C256.05 163.545 268.988 159.541 268.988 159.541Z" fill="black"/>
<path opacity="0.1" d="M247.424 313.095C247.424 313.095 238.679 316.745 239.997 316.981C241.314 317.216 247.424 313.095 247.424 313.095Z" fill="black"/>
<path opacity="0.1" d="M229.335 307.678C228.994 306.925 235.205 310.74 235.205 311.211C235.205 311.682 229.814 308.738 229.335 307.678Z" fill="black"/>
<path opacity="0.1" d="M237.481 320.043C237.481 320.043 244.309 319.704 244.789 322.287C245.268 324.871 237.481 320.043 237.481 320.043Z" fill="black"/>
<path opacity="0.1" d="M188.364 320.028C188.364 320.028 195.792 318.6 196.391 320.028C196.99 321.456 188.364 320.028 188.364 320.028Z" fill="black"/>
<path opacity="0.1" d="M191.12 364.437C191.12 364.437 191.607 370.442 189.806 371.855C188.005 373.269 191.12 364.437 191.12 364.437Z" fill="black"/>
<path opacity="0.1" d="M190.212 377.154C192.557 377.39 204.896 375.27 204.776 377.154C204.657 379.038 190.212 377.154 190.212 377.154Z" fill="black"/>
<path opacity="0.1" d="M246.825 369.854C246.825 369.854 242.617 369.218 243.643 372.009L246.825 369.854Z" fill="black"/>
<path opacity="0.1" d="M168.598 134.812H166.322L162.848 147.294C162.848 147.294 161.65 151.651 160.452 152.711C159.254 153.771 161.53 163.427 161.53 163.427C161.53 163.427 160.212 170.257 159.134 172.023C158.056 173.79 160.811 178.147 160.811 178.147L166.322 190.864L180.937 194.632C180.937 194.632 206.693 200.167 207.891 200.991C209.089 201.816 210.167 200.638 211.006 192.984C211.844 185.33 214.121 170.492 215.918 169.786C215.918 169.786 201.542 171.317 200.344 171.081C199.146 170.846 193.396 171.199 193.396 171.199C193.396 171.199 185.849 170.728 184.651 171.434C183.453 172.141 186.208 168.014 186.208 168.014C186.712 166.125 186.712 164.139 186.208 162.249C185.369 159.07 184.89 123.037 168.598 134.812Z" fill="black"/>
<path opacity="0.1" d="M215.438 171.199C213.641 171.905 211.365 186.743 210.527 194.397C209.688 202.051 208.61 203.229 207.412 202.404C206.439 201.735 189.27 197.958 182.854 196.564C183.865 190.699 184.411 184.152 184.411 184.152L166.202 136.225H168.119C184.411 124.45 184.89 160.483 185.729 163.663C186.233 165.552 186.233 167.538 185.729 169.428C185.729 169.428 182.973 173.554 184.171 172.847C185.369 172.141 192.917 172.612 192.917 172.612C192.917 172.612 198.667 172.259 199.865 172.494C201.063 172.73 215.438 171.199 215.438 171.199Z" fill="black"/>
<path d="M168.119 135.283H165.842L162.368 147.765C162.368 147.765 161.17 152.122 159.972 153.182C158.774 154.242 161.051 163.898 161.051 163.898C161.051 163.898 159.733 170.728 158.655 172.494C157.576 174.26 160.332 178.617 160.332 178.617L165.842 191.335L180.458 195.103C180.458 195.103 206.214 200.638 207.412 201.462C208.61 202.286 209.688 201.109 210.527 193.455C211.365 185.801 213.641 170.963 215.438 170.257C215.438 170.257 201.063 171.788 199.865 171.552C198.667 171.317 192.917 171.67 192.917 171.67C192.917 171.67 185.369 171.199 184.171 171.905C182.973 172.612 185.729 168.485 185.729 168.485C186.233 166.596 186.233 164.61 185.729 162.72C184.89 159.541 184.411 123.508 168.119 135.283Z" fill="#00A82D"/>
<path opacity="0.1" d="M175.905 177.911C175.905 177.911 169.317 190.158 168.119 188.745C166.921 187.332 175.905 177.911 175.905 177.911Z" fill="black"/>
<path opacity="0.1" d="M169.077 170.937C169.077 170.937 162.967 175.909 165.842 177.204C168.717 178.5 169.077 170.937 169.077 170.937Z" fill="black"/>
<path opacity="0.1" d="M174.827 164.84C175.306 164.958 183.692 166.595 183.812 167.307C183.932 168.02 174.827 164.84 174.827 164.84Z" fill="black"/>
<path opacity="0.1" d="M232.982 78.5765C232.721 78.6666 232.499 78.8399 232.35 79.0687C232.202 79.2976 232.135 79.5687 232.162 79.8389C231.673 80.2628 230.988 79.7635 230.59 79.2218C230.188 78.6849 229.733 78.0207 229.124 78.0961C228.835 78.1867 228.554 78.3018 228.286 78.44C227.327 78.7414 226.517 77.6345 225.981 76.6642C225.046 74.9638 224.112 73.265 223.177 71.5677C221.304 72.6369 219.09 71.5159 217.231 70.409C215.371 69.302 213.158 68.1763 211.279 69.2455C208.524 70.8093 208.423 76.0236 205.567 77.3095C204.647 77.724 203.579 77.6345 202.726 78.2044C201.882 78.7696 201.427 79.8577 201.048 80.8987C200.908 81.4913 200.579 82.0243 200.109 82.4201C199.811 82.5736 199.478 82.6528 199.141 82.6509C198.294 82.7923 197.424 82.6722 196.649 82.307C196.244 82.0563 195.937 81.6769 195.78 81.2315C195.623 80.7861 195.626 80.3015 195.787 79.8577C195.81 79.8107 195.835 79.7651 195.864 79.7211C196.171 79.3564 196.446 78.9672 196.688 78.5577C196.975 77.8088 196.563 76.9374 196.654 76.1272C196.803 74.7424 198.293 74.0123 198.547 72.6511C198.652 72.1188 198.542 71.5489 198.643 71.0119C198.657 70.9415 198.676 70.8723 198.7 70.8046L197.823 71.3981C198.806 70.2724 199.299 68.7086 200.018 67.3426C200.817 65.847 201.915 64.5261 203.248 63.4599C204.581 62.3936 206.12 61.6041 207.771 61.1392C210.896 60.2443 214.197 60.4892 217.35 61.2475C220.349 61.9818 223.221 63.1451 225.875 64.7001C226.823 65.2 227.666 65.873 228.357 66.6832C228.937 67.5231 229.43 68.4178 229.828 69.3539C230.758 71.2474 233.298 72.9996 231.276 73.2634C229.594 73.4847 231.127 74.6435 232.009 75.4254C232.208 75.5787 232.379 75.7633 232.517 75.9717C232.663 76.2696 232.73 76.5992 232.712 76.9295C232.693 77.2599 232.59 77.5802 232.411 77.8606C232.071 78.2845 233.451 78.3693 232.982 78.5765Z" fill="black"/>
<path d="M232.981 78.1056C232.721 78.1957 232.499 78.369 232.35 78.5978C232.202 78.8267 232.135 79.0978 232.162 79.368C231.673 79.7919 230.988 79.2926 230.59 78.7509C230.188 78.214 229.733 77.5498 229.124 77.6252C228.835 77.7158 228.554 77.8309 228.285 77.969C227.327 78.2705 226.517 77.1636 225.981 76.1933C225.046 74.4929 224.112 72.7941 223.177 71.0968C221.304 72.166 219.09 71.045 217.231 69.938C215.371 68.8311 213.157 67.7054 211.279 68.7746C208.524 70.3384 208.423 75.5527 205.567 76.8386C204.647 77.2531 203.579 77.1636 202.726 77.7335C201.882 78.2987 201.427 79.3868 201.048 80.4278C200.908 81.0204 200.579 81.5534 200.109 81.9492C199.811 82.1027 199.478 82.1819 199.141 82.18C198.294 82.3215 197.424 82.2013 196.649 81.8361C196.244 81.5854 195.937 81.206 195.78 80.7606C195.623 80.3152 195.626 79.8306 195.787 79.3868C195.81 79.3398 195.835 79.2942 195.864 79.2502C196.171 78.8855 196.446 78.4963 196.688 78.0868C196.975 77.3379 196.563 76.4665 196.654 75.6563C196.803 74.2715 198.293 73.5414 198.547 72.1801C198.652 71.6479 198.542 71.0779 198.643 70.541C198.657 70.4706 198.676 70.4014 198.7 70.3337L197.823 70.9272C198.806 69.8015 199.299 68.2377 200.018 66.8717C200.817 65.3761 201.915 64.0552 203.248 62.9889C204.581 61.9227 206.12 61.1332 207.771 60.6683C210.896 59.7733 214.197 60.0182 217.35 60.7766C220.349 61.5108 223.221 62.6741 225.875 64.2292C226.823 64.729 227.666 65.4021 228.357 66.2122C228.937 67.0522 229.43 67.9469 229.828 68.8829C230.758 70.7765 233.298 72.5287 231.276 72.7924C229.594 73.0138 231.127 74.1726 232.009 74.9545C232.208 75.1078 232.379 75.2924 232.517 75.5008C232.663 75.7987 232.73 76.1283 232.712 76.4586C232.693 76.7889 232.59 77.1093 232.411 77.3897C232.071 77.8136 233.451 77.8984 232.981 78.1056Z" fill="#865A61"/>
<path opacity="0.1" d="M232.009 74.9545L231.817 76.9375C231.817 76.9375 211.71 51.8884 196.07 80.1734C196.07 80.1734 195.993 79.8296 195.864 79.2502C196.17 78.8855 196.446 78.4963 196.688 78.0868C196.975 77.3379 196.563 76.4665 196.654 75.6563C196.803 74.2715 198.293 73.5414 198.547 72.1801C198.652 71.6479 198.542 71.0779 198.643 70.541C198.657 70.4706 198.676 70.4013 198.7 70.3337L197.823 70.9272C198.806 69.8015 199.299 68.2377 200.018 66.8717C200.817 65.3761 201.915 64.0552 203.248 62.9889C204.581 61.9227 206.119 61.1332 207.771 60.6683C210.896 59.7733 214.197 60.0182 217.35 60.7766C220.349 61.5108 223.221 62.6741 225.875 64.2292C226.823 64.729 227.666 65.4021 228.357 66.2122C228.937 67.0522 229.43 67.9469 229.828 68.8829C230.758 70.7765 233.298 72.5287 231.276 72.7924C229.594 73.0139 231.127 74.1726 232.009 74.9545Z" fill="black"/>
<g opacity="0.1">
<path opacity="0.1" d="M232.504 77.849C232.405 77.9586 232.333 78.0891 232.294 78.2305C232.254 78.3719 232.248 78.5203 232.277 78.6643C231.788 79.0882 231.103 78.589 230.705 78.0473C230.302 77.5103 229.847 76.8462 229.238 76.9215C228.949 77.0122 228.669 77.1272 228.4 77.2654C227.442 77.5668 226.632 76.4599 226.095 75.4896C225.161 73.7892 224.226 72.0904 223.292 70.3931C221.418 71.4623 219.204 70.3413 217.345 69.2344C215.486 68.1275 213.272 67.0017 211.394 68.071C208.638 69.6348 208.538 74.849 205.682 76.1349C204.762 76.5494 203.693 76.4599 202.84 77.0299C201.997 77.5951 201.541 78.6831 201.163 79.7241C201.023 80.3167 200.694 80.8497 200.224 81.2455C199.925 81.399 199.593 81.4782 199.256 81.4763C198.409 81.6178 197.538 81.4976 196.764 81.1325C196.3 80.8299 195.967 80.3683 195.83 79.8376C195.735 80.2596 195.773 80.7001 195.94 81.0999C196.107 81.4998 196.395 81.8399 196.764 82.0745C197.538 82.4397 198.409 82.5598 199.256 82.4184C199.593 82.4203 199.925 82.341 200.224 82.1876C200.694 81.7918 201.023 81.2587 201.163 80.6662C201.541 79.6252 201.997 78.5371 202.84 77.9719C203.693 77.402 204.762 77.4915 205.682 77.0769C208.538 75.7911 208.638 70.5768 211.394 69.013C213.272 67.9438 215.486 69.0695 217.345 70.1764C219.204 71.2833 221.418 72.4044 223.292 71.3352C224.226 73.0308 225.161 74.7297 226.095 76.4316C226.632 77.402 227.442 78.5088 228.4 78.2074C228.669 78.0693 228.949 77.9542 229.238 77.8635C229.847 77.7882 230.302 78.4523 230.705 78.9893C231.103 79.531 231.788 80.0303 232.277 79.6063C232.25 79.3362 232.316 79.065 232.465 78.8362C232.613 78.6074 232.835 78.4341 233.096 78.344C233.47 78.1792 232.675 78.0912 232.504 77.849Z" fill="black"/>
<path opacity="0.1" d="M230.938 73.1431C231.083 73.0859 231.235 73.0481 231.39 73.0309C232.282 72.9146 232.285 72.5085 231.932 71.929C231.765 72.018 231.58 72.0724 231.39 72.0888C230.428 72.2155 230.519 72.6491 230.938 73.1431Z" fill="black"/>
<path opacity="0.1" d="M232.774 77.0886C232.841 76.7849 232.839 76.4705 232.769 76.1675C232.726 76.3553 232.643 76.532 232.526 76.686C232.375 76.873 232.561 76.9939 232.774 77.0886Z" fill="black"/>
<path opacity="0.1" d="M196.797 75.7319C196.786 75.7858 196.775 75.839 196.769 75.8949C196.749 76.3191 196.781 76.7441 196.863 77.161C196.92 76.6843 196.897 76.2017 196.797 75.7319Z" fill="black"/>
<path opacity="0.1" d="M198.742 69.9849C198.516 70.4048 198.247 70.8005 197.938 71.1655L198.711 70.642C198.708 70.4226 198.718 70.2031 198.742 69.9849Z" fill="black"/>
</g>
<path d="M196.069 79.7024C196.069 79.7024 193.177 66.9971 194.097 64.9594C194.097 64.9594 191.6 59.9252 191.6 58.7266C191.479 56.7265 190.846 54.7888 189.76 53.0931C188.446 51.0555 187 41.5864 194.886 39.3091C202.771 37.0317 208.817 34.994 209.737 33.4358C210.657 31.8777 224.194 32.8365 227.874 38.8296C231.554 44.8227 233.92 43.6241 233.92 43.6241C233.92 43.6241 239.571 47.1001 239.571 50.2165C239.571 53.3329 237.862 54.8911 239.571 55.6102C241.279 56.3294 239.965 69.2744 232.474 69.634L231.817 76.4661C231.817 76.4661 211.708 51.4151 196.069 79.7024Z" fill="#00A82D"/>
<path opacity="0.1" d="M196.93 41.7849C196.93 41.7849 195.193 51.7942 198.367 55.1502L196.93 41.7849Z" fill="black"/>
<path opacity="0.1" d="M205.076 39.4888C205.076 39.4888 200.643 50.2046 201.722 52.2653L205.076 39.4888Z" fill="black"/>
<path opacity="0.1" d="M208.909 36.0737C208.909 36.0737 205.915 50.0278 207.352 51.1465L208.909 36.0737Z" fill="black"/>
<path opacity="0.1" d="M214.061 39.8418C214.061 39.8418 210.347 48.7913 211.844 50.0277L214.061 39.8418Z" fill="black"/>
<path opacity="0.1" d="M221.069 40.9016C221.069 40.9016 216.696 48.2025 217.595 49.4978L221.069 40.9016Z" fill="black"/>
<path opacity="0.1" d="M230.054 48.0261C230.054 48.0261 225.382 49.2626 226.34 50.7345L230.054 48.0261Z" fill="black"/>
<path opacity="0.1" d="M234.486 55.6213C234.486 55.6213 230.293 57.6232 231.072 58.683L234.486 55.6213Z" fill="black"/>
<path opacity="0.1" d="M194.097 64.9594C194.097 64.9594 220.878 54.2667 232.474 69.634C232.474 69.6341 218.399 57.8706 194.097 64.9594Z" fill="black"/>
<path d="M184.419 152.819L188.151 149.108L198.702 159.359L194.97 163.071L185.267 153.643L184.419 152.819Z" fill="#53526B"/>
<path d="M159.939 129.031C159.939 129.031 176.271 130.397 191.472 147.216L185.136 153.516L159.939 129.031Z" fill="#DFE6F5"/>
<path d="M208.927 159.103C208.927 159.103 193.229 153.478 191.687 152.133C190.144 150.788 181.07 158.614 192.14 169.252C192.14 169.252 205.677 173.043 209.298 169.252C212.92 165.462 208.927 159.103 208.927 159.103Z" fill="#FDC2CC"/>
<path d="M499.505 266.613H496.313V337.208H499.505V266.613Z" fill="#535461"/>
<path d="M519.552 336.993L519.35 340.173L519.068 344.659L518.951 346.531L518.669 351.023L518.547 352.895L518.265 357.382L515.046 408.425C514.908 410.621 513.923 412.682 512.292 414.189C510.661 415.696 508.507 416.535 506.269 416.535H489.548C487.311 416.535 485.157 415.696 483.527 414.189C481.897 412.682 480.913 410.62 480.776 408.425L477.552 357.382L477.27 352.895L477.153 351.023L476.866 346.531L476.749 344.659L476.467 340.173L476.265 336.993C476.226 336.383 476.316 335.772 476.527 335.197C476.738 334.622 477.067 334.095 477.493 333.65C477.919 333.205 478.434 332.85 479.005 332.607C479.576 332.365 480.191 332.24 480.813 332.24H515.009C515.631 332.24 516.246 332.365 516.817 332.608C517.387 332.85 517.901 333.205 518.327 333.651C518.753 334.096 519.081 334.622 519.292 335.197C519.502 335.772 519.591 336.383 519.552 336.993Z" fill="#65617D"/>
<path d="M519.35 340.173L519.068 344.659H476.748L476.467 340.173H519.35Z" fill="#9D9CB5"/>
<path d="M518.951 346.532L518.669 351.024H477.153L476.866 346.532H518.951Z" fill="#9D9CB5"/>
<path d="M518.547 352.895L518.265 357.382H477.552L477.27 352.895H518.547Z" fill="#9D9CB5"/>
<path d="M471.595 293.073C490.173 306.283 497.908 326.947 497.908 326.947C497.908 326.947 475.522 326.192 456.944 312.982C438.366 299.772 430.63 279.109 430.63 279.109C430.63 279.109 453.017 279.863 471.595 293.073Z" fill="#00A82D"/>
<path d="M430.63 279.109C430.63 279.109 453.866 291.787 461.32 302.283C468.774 312.779 497.908 326.947 497.908 326.947" stroke="#535461" stroke-width="2" stroke-miterlimit="10"/>
<path d="M483.586 266.457C493.698 273.647 497.908 284.894 497.908 284.894C497.908 284.894 485.724 284.483 475.612 277.293C465.5 270.103 461.289 258.856 461.289 258.856C461.289 258.856 473.474 259.267 483.586 266.457Z" fill="#00A82D"/>
<path d="M461.289 258.856C461.289 258.856 473.936 265.757 477.994 271.47C482.051 277.183 497.908 284.894 497.908 284.894" stroke="#535461" stroke-width="2" stroke-miterlimit="10"/>
<path d="M512.603 284.322C500.988 296.87 498.531 313.266 498.531 313.266C498.531 313.266 514.905 309.316 526.52 296.768C538.135 284.22 540.591 267.824 540.591 267.824C540.591 267.824 524.217 271.773 512.603 284.322Z" fill="#00A82D"/>
<path d="M540.591 267.824C540.591 267.824 525.462 280.687 521.617 289.549C517.772 298.412 498.531 313.266 498.531 313.266" stroke="#535461" stroke-width="2" stroke-miterlimit="10"/>
</g>
<defs>
<linearGradient id="paint0_linear_132:2" x1="217.721" y1="416.433" x2="217.721" y2="31.0935" gradientUnits="userSpaceOnUse">
<stop stop-color="#808080" stop-opacity="0.25"/>
<stop offset="0.53514" stop-color="#808080" stop-opacity="0.12"/>
<stop offset="1" stop-color="#808080" stop-opacity="0.1"/>
</linearGradient>
<clipPath id="clip0_132:2">
<rect width="549" height="420" fill="white"/>
</clipPath>
</defs>
</svg>
